<?xml version="1.0" encoding="iso-8859-1"?>
<!-- Generator: Adobe Illustrator 17.0.0, SVG Export Plug-In . SVG Version: 6.00 Build 0)  -->
<!DOCTYPE svg PUBLIC "-//W3C//DTD SVG 1.1//EN" "http://www.w3.org/Graphics/SVG/1.1/DTD/svg11.dtd">
<svg version="1.1"
	 id="svg10340" xmlns:dc="http://purl.org/dc/elements/1.1/" xmlns:rdf="http://www.w3.org/1999/02/22-rdf-syntax-ns#" xmlns:inkscape="http://www.inkscape.org/namespaces/inkscape" xmlns:svg="http://www.w3.org/2000/svg" xmlns:cc="http://creativecommons.org/ns#" xmlns:sodipodi="http://sodipodi.sourceforge.net/DTD/sodipodi-0.dtd" inkscape:version="0.91pre3 r13670" sodipodi:docname="arthur005.svg"
	 xmlns="http://www.w3.org/2000/svg" xmlns:xlink="http://www.w3.org/1999/xlink" x="0px" y="0px" width="1039.759px"
	 height="1293.289px" viewBox="0 0 1039.759 1293.289" style="enable-background:new 0 0 1039.759 1293.289;" xml:space="preserve">
<style type="text/css">
	.st0{fill:#FFFFFF;stroke:none;stroke-miterlimit:10;}
	.st1{fill:none;}
	.st2{font-family:'Courier';}
	.st3{font-size:21;}
</style>
<g>
	<rect y="0" class="st0" width="1039.759" height="1293.289"/>
	<g>
		<polygon class="st1" points="428.76,668.977 465.577,654.673 600.19,646.28 622.946,677.779 622.946,709.277 538.209,686.652
			426.819,692.281 		"/>
		<text transform="matrix(1 0 0 1 460.8906 684.8992)" class="st2 st3">superhuman </text>
		<polygon class="st1" points="836.426,389.689 852.349,259.826 677.803,123.597 725.442,100.695 694.057,67.514 513.093,8.857
			417.759,8.857 459.669,27.664 438.571,40.345 372.759,41.425 396.382,85.995 372.074,103.215 421.502,114.851 490.679,92.791
			569.519,136.45 539.697,158.95 413.191,149.489 412.557,122.462 379.383,117.788 231.119,165.221 278.664,192.321
			242.457,207.407 225.153,287.206 231.825,374.746 270.405,421.881 264.954,461.387 295.178,574.542 341.238,587.418
			351.384,568.687 323.388,519.307 374.855,500.351 400.713,508.242 436.691,491.788 486.812,480.909 480.426,419.689
			446.489,398.87 419.759,400.356 369.759,416.356 437.093,422.356 416.426,437.689 376.893,446.28 354.462,431.782
			338.426,411.672 356.915,360.644 378.653,315.884 407.928,286.068 459.919,268.876 499.768,254.94 506.347,230.71 608.24,230.224
			633.2,209.019 633.2,209.019 742.774,338.796 768.181,464.789 759.182,532.286 778.681,563.784 804.426,583.689 850.677,541.285
			822.426,429.689 		"/>
		<text transform="matrix(1 0 0 1 476.1328 22.2765)" class="st2 st3">A </text>
		<text transform="matrix(1 0 0 1 457.8759 47.4764)" class="st2 st3">poet makes </text>
		<text transform="matrix(1 0 0 1 411.2928 72.6766)" class="st2 st3">himself a visionary </text>
		<text transform="matrix(1 0 0 1 548.8918 97.8766)" class="st2 st3">through a  </text>
		<text transform="matrix(1 0 0 1 580.6228 123.0765)" class="st2 st3">long, </text>
		<text transform="matrix(1 0 0 1 329.5568 148.2765)" class="st2 st3">bound</text>
		<text transform="matrix(1 0 0 1 392.5678 148.2765)" class="st2 st3">-</text>
		<text transform="matrix(1 0 0 1 574.7919 148.2765)" class="st2 st3">less, and </text>
		<text transform="matrix(1 0 0 1 334.6878 173.4766)" class="st2 st3">systematised disorganisa </text>
		<text transform="matrix(1 0 0 1 286.7308 198.6766)" class="st2 st3">tion of all the senses. All forms of </text>
		<text transform="matrix(1 0 0 1 378.2039 223.8766)" class="st2 st3">love, of  </text>
		<text transform="matrix(1 0 0 1 255.2828 249.0765)" class="st2 st3">suffering, of mad</text>
		<text transform="matrix(1 0 0 1 469.5178 249.0765)" class="st2 st3">-</text>
		<text transform="matrix(1 0 0 1 694.6478 249.0765)" class="st2 st3">ness; he </text>
		<text transform="matrix(1 0 0 1 255.1749 274.2765)" class="st2 st3">searches him</text>
		<text transform="matrix(1 0 0 1 406.3998 274.2765)" class="st2 st3">-</text>
		<text transform="matrix(1 0 0 1 719.0278 274.2765)" class="st2 st3">self, he  </text>
		<text transform="matrix(1 0 0 1 260.0198 299.4766)" class="st2 st3">exhausts </text>
		<text transform="matrix(1 0 0 1 740.7228 299.4766)" class="st2 st3">within </text>
		<text transform="matrix(1 0 0 1 231.8848 324.6766)" class="st2 st3">himself all </text>
		<text transform="matrix(1 0 0 1 737.2148 324.6766)" class="st2 st3">poisons, </text>
		<text transform="matrix(1 0 0 1 251.9308 349.8766)" class="st2 st3">and pre </text>
		<text transform="matrix(1 0 0 1 254.0839 375.0765)" class="st2 st3">serves </text>
		<text transform="matrix(1 0 0 1 762.6488 375.0765)" class="st2 st3">their </text>
		<text transform="matrix(1 0 0 1 266.1328 400.2766)" class="st2 st3">quin</text>
		<text transform="matrix(1 0 0 1 316.5408 400.2766)" class="st2 st3">-</text>
		<text transform="matrix(1 0 0 1 768.7418 400.2766)" class="st2 st3">tes</text>
		<text transform="matrix(1 0 0 1 806.5488 400.2766)" class="st2 st3">-</text>
		<text transform="matrix(1 0 0 1 273.3499 425.4766)" class="st2 st3">senc</text>
		<text transform="matrix(1 0 0 1 323.7578 425.4766)" class="st2 st3">-</text>
		<text transform="matrix(1 0 0 1 773.1738 425.4766)" class="st2 st3">es. </text>
		<text transform="matrix(1 0 0 1 297.6478 450.6766)" class="st2 st3">Un</text>
		<text transform="matrix(1 0 0 1 322.8518 450.6766)" class="st2 st3">-</text>
		<text transform="matrix(1 0 0 1 295.0118 475.8766)" class="st2 st3">speakable tor </text>
		<text transform="matrix(1 0 0 1 292.7219 501.0765)" class="st2 st3">ment, </text>
		<text transform="matrix(1 0 0 1 769.6918 501.0765)" class="st2 st3">where </text>
		<text transform="matrix(1 0 0 1 292.2089 526.2766)" class="st2 st3">he </text>
		<text transform="matrix(1 0 0 1 777.5018 526.2766)" class="st2 st3">will </text>
		<text transform="matrix(1 0 0 1 780.1089 551.4766)" class="st2 st3">need </text>
		<text transform="matrix(1 0 0 1 306.0248 576.6766)" class="st2 st3">the </text>
		<polygon class="st1" points="565.691,556.285 488.935,575.187 465.966,566.062 446.924,568.337 436.691,602.323 448.197,623.532
			459.093,608.356 483.484,604.095 523.102,607.502 555.192,615.894 		"/>
		<text transform="matrix(1 0 0 1 494.4248 594.9036)" class="st2 st3">a  </text>
		<polygon class="st1" points="962.272,1054.756 784.276,954.266 700.826,859.943 703.041,973.87 497.743,972.458 539.561,925.221
			472.983,894.122 431.105,884.996 378.535,894.681 374.871,928.06 434.322,1018.277 469.512,1017.037 542.47,1032.753
			633.046,1131.178 706.426,1215.689 687.025,1133.616 590.975,1047.7 584.303,1018.497 720.031,1070.934 737.588,1267.73
			593.275,1286.834 465.759,1253.022 364.717,940.508 352.105,858.428 389.607,812.888 426.819,831.689 520.211,851.318
			568.426,851.689 444.465,808.257 385.901,717.084 355.564,701.207 330.76,615.894 339.105,705.77 360.021,766.491
			309.286,798.416 209.198,908.273 24.426,1003.689 70.426,1279.689 639.106,1298.986 998.426,1275.689 1039.759,1122.356 		"/>
		<text transform="matrix(1 0 0 1 319.2705 805.7125)" class="st2 st3">strength, </text>
		<text transform="matrix(1 0 0 1 301.2225 830.9125)" class="st2 st3">where </text>
		<text transform="matrix(1 0 0 1 437.3545 830.9125)" class="st2 st3">he </text>
		<text transform="matrix(1 0 0 1 291.9685 856.1125)" class="st2 st3">be</text>
		<text transform="matrix(1 0 0 1 317.1725 856.1125)" class="st2 st3">-</text>
		<text transform="matrix(1 0 0 1 267.7615 881.3135)" class="st2 st3">comes </text>
		<text transform="matrix(1 0 0 1 245.6155 906.5135)" class="st2 st3">all men  </text>
		<text transform="matrix(1 0 0 1 192.4425 931.7125)" class="st2 st3">the great in</text>
		<text transform="matrix(1 0 0 1 343.6665 931.7125)" class="st2 st3">-</text>
		<text transform="matrix(1 0 0 1 389.4246 931.7125)" class="st2 st3">valid, the </text>
		<text transform="matrix(1 0 0 1 157.7435 956.9125)" class="st2 st3">great criminal, </text>
		<text transform="matrix(1 0 0 1 433.7915 956.9125)" class="st2 st3">the  </text>
		<text transform="matrix(1 0 0 1 93.3105 982.1125)" class="st2 st3">great accursed&#x2014;and the </text>
		<text transform="matrix(1 0 0 1 411.0835 982.1125)" class="st2 st3">Supreme </text>
		<text transform="matrix(1 0 0 1 719.7765 982.1125)" class="st2 st3">Scien</text>
		<text transform="matrix(1 0 0 1 782.7875 982.1125)" class="st2 st3">-</text>
		<text transform="matrix(1 0 0 1 154.8975 1007.3135)" class="st2 st3">tist! For  </text>
		<text transform="matrix(1 0 0 1 39.7655 1032.5135)" class="st2 st3">he attains the unknown! Be</text>
		<text transform="matrix(1 0 0 1 367.4185 1032.5135)" class="st2 st3">-</text>
		<text transform="matrix(1 0 0 1 647.6035 1032.5135)" class="st2 st3">cause he has culti </text>
		<text transform="matrix(1 0 0 1 71.1436 1057.7136)" class="st2 st3">vated his soul, already </text>
		<text transform="matrix(1 0 0 1 721.4365 1057.7136)" class="st2 st3">rich, more than </text>
		<text transform="matrix(1 0 0 1 58.4146 1082.9126)" class="st2 st3">anyone! He attains the un</text>
		<text transform="matrix(1 0 0 1 373.4655 1082.9126)" class="st2 st3">-</text>
		<text transform="matrix(1 0 0 1 737.4795 1082.9126)" class="st2 st3">known, and if, de</text>
		<text transform="matrix(1 0 0 1 951.7145 1082.9126)" class="st2 st3">-</text>
		<text transform="matrix(1 0 0 1 51.9865 1108.1125)" class="st2 st3">mented, he finally loses the </text>
		<text transform="matrix(1 0 0 1 740.4446 1108.1125)" class="st2 st3">understanding of his </text>
		<text transform="matrix(1 0 0 1 77.0626 1133.3136)" class="st2 st3">visions, he will at least </text>
		<text transform="matrix(1 0 0 1 736.2775 1133.3136)" class="st2 st3">have seen them! So what </text>
		<text transform="matrix(1 0 0 1 58.0325 1158.5135)" class="st2 st3">if he is destroyed in his ec</text>
		<text transform="matrix(1 0 0 1 410.8895 1158.5135)" class="st2 st3">-</text>
		<text transform="matrix(1 0 0 1 746.6075 1158.5135)" class="st2 st3">static flight through </text>
		<text transform="matrix(1 0 0 1 57.9055 1183.7136)" class="st2 st3">things unheard of, unnameable: </text>
		<text transform="matrix(1 0 0 1 738.0336 1183.7136)" class="st2 st3">other horrible workers </text>
		<text transform="matrix(1 0 0 1 70.3806 1208.9126)" class="st2 st3">will come; they will begin at </text>
		<text transform="matrix(1 0 0 1 735.7615 1208.9126)" class="st2 st3">the horizons where the </text>
		<text transform="matrix(1 0 0 1 126.9615 1234.1125)" class="st2 st3">first one has fallen!</text>
		<polygon class="st1" points="640.509,436.185 604.121,408.723 599.316,398.424 543.707,404.604 578.469,411.684 574.395,412.154
			547.766,442.366 556.75,470.509 633.188,509.787 702.184,464.789 		"/>
		<text transform="matrix(1 0 0 1 561.9678 462.2424)" class="st2 st3">greatest </text>
		<text transform="matrix(1 0 0 1 590.7698 487.4424)" class="st2 st3">faith, </text>
	</g>
</g>
</svg>
