<svg xmlns="http://www.w3.org/2000/svg" viewBox="0 0 572.1 768.7" style="enable-background:new 0 0 572.1 768.7"><path d="m49.5 269.7c1.1-.6 2.2-1.3 3.4-1.7 1.8-.7 2.2-2 1.9-3.6-.3-1.7-1.2-2.7-3-2.9-1.6-.1-2.6.7-3.1 2.1-.4 1.1-.8 2.2-1.3 3.6-1.7 0-3.2.1-4.7 0-2.4-.3-3.5-1.9-3.7-4.4-.1-2.3 1.2-3.2 3.2-3.7 1.4-.3 3.6-.6 3.9-1.5.6-1.9.6-4.2.2-6.2-.2-.9-1.9-1.7-3-2.3-1-.6-2.4-.7-3.2-1.5-1.4-1.5-.9-4.5.8-5.6 1.7-1.1 5.2-.6 6.1 1.1.6 1.2 1 2.5 1.5 3.6 2.3.3 3.6-.6 4.1-2.4.5-1.7-.2-3-1.6-3.9-1.7-1.1-2.3-2.7-2-4.7.3-2 1.3-3.3 3.6-3.3 3 0 6.1-.4 8.8 2.2-.2-.7-.3-1.6-.7-2-1.7-1.5-1.6-3.4-1.7-5.4-.1-3.9 3.6-4.3 5.7-2.7.6.4 1.1 1 1.6 1.6 2.7 3.1 6.3 3.2 8.4-.3 1.7-3 3.9-4.3 7.2-4.4 2.6-.1 4.6-1.3 5.3-4.1.5-1.9 1.7-3.4 3.7-3.4 1.9 0 3.1 1.4 4 3.2 2 4.1 7.3 4.1 9.8.2.4-.6.6-1.4 1.1-2 2-2.9 5.7-3.3 8.2-.8.5.5.8 1.3 1.3 1.8 2.8 3.3 6.5 3 8.3-.9 1.2-2.6 2.7-3.7 5.6-3.6 2 .1 3.5.8 4.2 2.8.1.4.4.8.6 1.2 1 2.1 2.6 3.3 5 3.3 2.6-.1 3.5-1.7 4.2-4 .8-2.9 2.6-3.8 5.5-3.1 2.1.5 2.9 1.9 3.3 3.8 1 4.6 1 4.6 5.6 5.1.4 0 .9.1 1.3.2.9.2 1.7.5 2.8.8.3 1.1.7 2.2 1.1 3.3 1.3 4 2.5 4.9 6.5 5.1 1.7.1 2.5-.6 2.9-2.1.2-1 .4-2.1.7-3.1.6-1.9 2-2.6 3.9-2.3 2 .3 3.5 2.3 3.4 4.7 0 1.8-1 2.8-2.7 3.1-.4.1-.9 0-1.4.1-1.5.2-3.5.2-3.5 2.1.1 1.8.7 4.1 1.9 5.2 1 .9 3.4.8 5 .5.7-.1 1.3-1.9 1.5-3 .3-1.8.4-3.7 2.9-3.9 2.7-.3 4.9.9 5.7 3.4.4 1.4.4 2.9.7 4.7-1.8.5-3.3.6-4.6 1.3-1 .5-2.4 2.1-2.2 2.4.7 1.3 1.9 2.7 3.2 3.4.6.3 2.2-.5 3-1.2.6-.5.7-1.6.9-2.5.5-1.5 1.5-2 3.1-2.1 5.6-.4 6.9 1.1 6.2 8.2-1.1.4-2.4.7-3.7 1.1-1.5.5-3.1 1.2-2.9 3 .2 1.5 1 3.1 2 4.3.8.9 2.4 1.2 3.7 1.9.1.9.3 1.8.2 2.7-.8 4-3.8 5.1-7 2.6-1.3-1-2.5-2.5-3.9-2.9-2.7-.7-5.3-.2-7.5 2-3.5 3.5-5.5 3.2-8-1.1-1.2-2-2.8-3.1-4.9-3.7-2.1-.6-3.7-1.7-3.7-4 0-2.5 1.5-3.7 3.8-4.4 3.7-1.1 4.5-2.6 3.8-5.9-.7-3.6-2.4-4.8-6-4.7-2 .1-3.2 1.1-3.5 2.9-.7 3.3-2.5 5.4-5.6 6.5-2.1.8-3.4 2.4-3.9 4.7-.6 2.7-2.5 3.9-5.1 4.5-5.1 1.2-5.1 1.3-9.4 4.9-.8-.6-2.1-1-2.6-1.9-1.8-2.9-4.4-3.5-7.4-3.3-2.3.1-3.9-.5-5.1-2.8-1.4-2.9-3.9-3.1-5.5-.3-1.4 2.6-3.1 3.4-5.9 2.8-2.9-.6-5.2-1.7-5.7-5-.4-2.6-2.1-3.7-4.5-4.4-4.6-1.3-6.1-4.4-4.6-9 .4-1.3 1-2.6 1.4-4-.3-.2-.5-.3-.8-.5-.6.3-1.3.6-1.7 1-3.1 3.4-6.9 3.5-10 .2-1.1-1.2-2.3-2.3-3.9-1.6-1.1.5-2.1 1.7-2.5 2.9-.2.6.6 2.1 1.4 2.4 2.8 1.2 3.5 3.3 2.8 5.9-.3 1.2-1.3 2.4-2.4 3-5.3 3-5.6 3.4-4.3 9.9 1.3.4 3 .6 4.1 1.4 1 .8 1.9 2.3 2 3.6.1.7-1.4 1.9-2.4 2.3-1.6.6-2.9-.3-3.7-1.8-.1-.3-.3-.6-.3-.8-.3-2.7-1.5-4.1-4.5-3.9-3.7.2-4.8.7-5.8 4.4-.8 2.9-2.2 4-5.2 3.9-2.5-.1-4.9.4-5.5 3.5-.3 1.8-1 3.4-3 3.4-2 0-2.6-1.8-3.1-3.4.1-.4.1-.9-.1-1.8m56.1-71.8c.2 1.8 1 2.5 2.8 2.9 4.4 1 5.3.6 6.6-4 .1-.4.3-.9.5-1.3.6-2 2.1-2.4 3.9-2.3 1.8.1 2.8 1.1 3.1 2.8.3 1.6.5 3.2.8 5.1-2 .3-3.5.3-4.9.7-.8.2-2.2.7-2.2 1.2-.1 1.9-.3 4 .6 5.6.6 1.1 2.8 1.8 4.2 1.7 2-.1 2.9-1.9 2.9-4 0-1.4.2-2.9.3-4.6 1.9.1 3.2.3 4.5.4 3.1.2 4.9 1.5 5.4 4.9.5 3.3 1.8 4 5 3.9 2.9-.1 3.1-.3 3.9-4.3.7-3.5 1.6-4.2 5.3-4.2 1.2 0 2.3.2 3.5.3.4 1.6.7 2.9 1.1 4.2.8 2.8 2.3 3.9 4.8 3.6 2.8-.4 4.3-2.6 4.3-6 0-2.1-.7-2.6-4.2-2.7-4-.2-4-.2-5.3-4.5-.9-3-1.7-3.6-4.8-3.7-2.5-.1-3.9.8-4.8 3.2-.5 1.4-1.6 3-2.9 3.6-2 1-4-.3-4.6-2.3-1-3-.2-4.8 2.6-5.6 1.7-.5 3.3-.8 3.2-3-.1-1.8-1-3-2.6-3.2-2-.3-2.8 1.2-3.6 2.8-.4.9-1.1 2.3-1.8 2.4-2.2.3-4.5.3-6.8.1-1.9-.1-2.1-1.9-2.7-3.3-.9-2.4-2.8-3.6-5.3-3.6-2.3 0-3.4 1.7-3.7 3.9-.4 2.1-1.7 3-3.9 3-3.5.1-4.1-.3-5.4-4.1-1.4-4.1-1.5-4.2-5.8-4.2-1.2 0-2.4.1-4.1.2-.3 2.9-.6 5.7-.9 8.6-1.5.4-3 .8-4.4 1.3-2 .7-2.1 2.4-1.9 4.1.2 1.6 1.1 2.4 2.7 2.5 2 .2 3.1-.9 3.6-2.7.3-1.4.5-2.9.8-4.6 3.1 0 5.9 0 9.1 0 .6 2 1 3.6 1.1 5.2m-29.6-18.8c-.7-4.1-1.5-4.8-5.1-4.7-3.1 0-3.5.3-4 4.7-.3 2.4-1.3 3.6-3.7 3.5-1.5 0-2.9-.1-4.2-.2-.7-1.9-1.1-3.4-1.9-4.6-.8-1.1-2.1-2.3-3.4-2.6-4.3-.9-5.9 1.9-4.1 7.1 1.1.2 2.3.5 3.4.7 1.3.3 2.6.5 4 .8.2 1.2.3 2.3.5 3.3.7 3.5 3.7 5.1 6.7 3.2 1.1-.7 2.1-2.3 2.4-3.6.6-3 2.6-3.8 5.2-4 1.4-.1 2.9-.2 4.9-.4-.4-1.7-.6-2.4-.7-3.2m124.7 76.4c0 .7.4 1.5.8 2 .8.9 6.5 1.4 7.3.7 1.8-1.6.9-3.6.6-5.5-.2-1.7-1.5-2.6-3.2-2.7-1.5-.1-3 0-4.8 0-.2 2.1-.6 3.8-.7 5.5m-162.3-73.1c.1 1.5 0 3 .3 4.5.7 3.3 2.1 4.2 5.4 4 2.4-.2 2.9-1.8 3.1-3.7.2-1.8-.2-3.4-2.3-3.7-2.1-.5-4.3-.7-6.5-1.1m47.2 3.8c0-2.5-1.7-3.5-5.7-3.5-2.4 0-3.2.6-3.2 2.7 0 3.5 1.6 5.4 4.6 5.4 2.9 0 4.4-1.6 4.3-4.6m-52.3 64.7c-2.5.1-3.3 1.1-3.3 3.8 0 2.6.8 3.3 3.6 3.3 2.8 0 3.7-.9 3.6-3.3 0-2.7-1.2-3.9-3.9-3.8m-.1-51c2.1-.1 3.2-1.3 3.2-3.5 0-2.2-2-3.8-4.7-3.7-1.9.1-2.7 1.1-2.5 2.8 0 3.1 1.3 4.5 4 4.4m179 64.8c.9 1.6 2.6 2 4.3 1.5 1.6-.4 2.1-1.6 2-3.1-.1-2-1.2-3.1-3.1-3.3-1.2-.1-2.3 0-4.5 0 .6 2.1.7 3.7 1.3 4.9m-119.9-87.9c-.7-.7-2.7-.8-3.6-.3-.9.6-1.6 2.3-1.5 3.4.1.8 1.5 1.9 2.4 2.2 1.5.4 3.2.3 5.8.4-1.3-2.5-1.9-4.4-3.1-5.7m74.7 42.8c1.6-.1 3.1-1.7 3.1-3.4 0-1.5-1.7-3.3-3.2-3.4-1.6-.1-2.7 1.4-2.7 3.5 0 2.4 1 3.4 2.8 3.3m.7-24c-1-.2-2.7.5-3.4 1.3-.6.8-.9 2.9-.3 3.5 1.6 1.7 3.6.9 5.5-.2.3-2.1.5-4.1-1.8-4.6m5.7 10.4c-.6 1.7 1.1 3.5 3 3.6 1.8 0 2.8-.9 3-2.7.2-1.8-1.1-3.2-3.7-3.4-.6.6-1.9 1.4-2.3 2.5m-72.7-2.7c-1.8 0-2.7 1.1-2.9 2.8-.1 1.6 1.3 2.9 2.8 2.8 2-.1 2.4-1.5 2.5-2.9 0-1.7-.7-2.7-2.4-2.7m116 41.6c-.3-1.5-1.3-2.6-2.8-2.1-2.5.9-1.9 2.9-1.3 4.7 3.5-.1 4.5-.8 4.1-2.6m-164.2-51.1c-.9.1-2 1.3-2.3 2.2-.4 1.4 1.1 2.9 2.4 2.4 1-.3 1.7-1.3 3.1-2.5-1.5-.9-2.4-2.1-3.2-2.1m153.1 39.6c-1.6-.5-2.7.6-2.9 2.1-.1 1.6 1 2.6 2.6 2.4 1-.2 1.9-1 3.5-2-1.5-1.2-2.2-2.2-3.2-2.5m-17.5-17.2c0-.7-1.1-1.8-1.8-1.9-.6-.1-2 .9-2 1.6-.1.8.9 1.6 1.7 2.8 1-1.1 2.1-1.8 2.1-2.5m7.8 7.9c-.7.1-1.2 1-1.8 1.6.7.6 1.4 1.5 2.2 1.7.4.1 1.1-1.1 1.9-2-.9-.5-1.7-1.4-2.3-1.3m311.4 60.3c-.8 2.3-2.2 3.4-4.5 3.8-2.8.5-5.3 1.5-5.3 5.1 0 2.2-1.4 3.1-3.4 3.4-3.5.6-5.5-.4-7.1-3.7-1.4-2.9-2.4-3.4-5.3-3.3-2.3.1-2.9 1.7-3.6 3.5-1.1 2.5-3.9 3.6-6.5 2.7-2-.6-2.6-2.3-2.5-5.2.2-2.5 1.9-2.8 3.7-3.3 3.2-1 4-2.2 3.4-5.2-.5-2.2-2-3.2-5.1-3.7-1.7-.3-2.6.2-2.8 2-.2 1.8-.4 3.6-.6 5.6-1 .1-1.9.4-2.7.4-2.7-.1-3.9-1-4.2-3.2-.2-2.1.7-3.4 3.2-4.3 1.3-.4 2.5-.8 3.8-1.3.2-2.8 0-5.3-2.7-6.3-2.6-1-4.6.7-6 2.9-.1.1-.1.3-.2.4-2.8 3.3-6.7 3.3-9.6-.1-3.5-4.2-6.1-4.1-9.1.7-1.1 1.8-2.6 2.5-4.4 2.7-2.6.3-4.8-1.1-6.1-4.1-.9-1.9-2.2-3.5-4.4-3.5-2.1 0-3.7 1.1-4.5 3.2-.3.7-.6 1.4-1 2-1.3 1.9-3.3 1.9-5.3 1.6-2-.3-2.7-1.5-3-3.4-.7-4.5-1.1-4.8-5.4-4.9-1.3 0-2.7.1-4.1.2-.6 2.2-1.1 4.3-1.8 6.2-.7 1.8-2.5 2.1-4.2 1.8-1.8-.3-3.1-2.4-3.1-5 0-1.8 1-2.7 2.8-3 1.6-.2 3.2-.4 5.2-.7-.4-2.3-.5-4.1-1-5.8-.7-2.1-3.2-3.3-5.6-2.9-2.2.3-2.2 2.1-2.4 3.8-.2 1.3-.4 2.6-.7 4.4-2 0-3.8 0-5.6 0-1.8 0-3-.7-4.1-2.3-2.9-4.3-5.2-4.2-7.4.4-1 2.2-2.3 3-4.5 2.8-2.4-.1-4.8 0-7.1 0-.5 1.7-.6 3-1.2 4-.6.9-1.7 1.8-2.7 1.9-.6.1-1.9-1.2-2-2-.1-1 .6-2.3 1.3-3 .9-.8 2.4-1 3.5-1.5.1-2.9-.8-4.8-3.3-5.6-2.3-.8-3.5.7-4.8 2.4-1.9 2.4-5.5 1.9-6.8-.8-.7-1.4-.8-3-1.3-4.8 1.8-.3 3-.5 4.2-.7 1.6-.3 2.4-1.2 2.3-2.8-.1-1.8-.8-3.3-2.6-3.9-1.9-.5-2.8.8-3.4 2.3-.5 1.4-.8 2.8-1.3 4.5h-10c-.3-1.4-.9-2.6-.8-3.8.2-3.3-.8-5.4-4.1-6.6-2-.8-2.5-3.8-1-4.9 1.2-.8 2.9-.9 4.6-1.3.7 2.3.8 4.5 2 5.5 1.1 1 3.4 1.1 5 .9 2.9-.4 3.6-2.9 2.5-8.1-1.3-.3-2.8-.6-4.2-1.1-2.1-.7-2.6-2.4-2.3-4.4.2-1.9 1.5-3.1 3.3-3.1 2 0 3.6.8 3.8 3.1.1.9.1 1.9.4 2.7.3.8.9 2 1.5 2 2.2.1 4.6.3 6.7-.4.9-.3 1.4-2.4 1.8-3.8 1-3.6 1.9-4.4 5.6-4.6 1.3-.1 2.7-.1 4.4-.2.3-1.8.5-3.4.7-5 .2-1.9 1.2-3 3-3.6 2.6-.9 4.2-.3 5.5 2.3.9 1.8 1.8 3.1 4.1 2.8 2-.2 3.6-1.5 3.6-3.3.1-1.9-1.3-2.5-2.8-3-4.1-1.3-4.1-1.3-4.4-5.4-.1-1.3-.5-2.5-.7-3.7-2.6-.4-4.7-.5-6.7-1-1-.3-2.4-1.3-2.4-2.1-.5-5-3.4-6.7-7.9-6.6-.2 0-.5-.4-.8-.7-.1-.6-.2-1.4-.2-2.1 0-4.7.5-5.3 5.1-6.4 1.1-.3 2.3-.6 3.5-.9.2-1.9.3-3.5.5-5.2.2-1.8.5-3.5.7-5.3-1.9 0-3.9.1-5.8.1-2.5 0-4.1-.9-4.4-3.5-.4-3.3-2.2-4.9-5.5-5.6-3.3-.7-3.4-1.3-3.5-4.8 0-1.6 0-3.2 0-4.8-1.5-.3-2.4-.5-3.3-.6-4.6-.7-4.7-.7-5.8-5.5-.5-2.4-1.9-3.6-4.3-4-3-.5-5.1-2-5.9-4.9-.6-2.3-2.1-3.5-4.4-4-2.6-.6-4.8-1.9-5.4-4.9-.5-2.7-2.3-3.8-4.9-4.6-4.3-1.2-5.1-2.7-5.3-7.6 5.9-1.6 7.9-.8 9.1 4.6.7 2.9 39 39.1 39 39.1s52.2 52.3 163.6 107.3c.1.1-8.6 1.6-10.3 6.6m-169.8-139c-.6 2.3-1.1 4.3.7 5.7.6.4 2.1.3 2.8-.2 1.9-1.4-2-5.7-3.5-5.5m27.4 48.1c-.7 4.3-.2 6.1 1.7 6.3 1.6.1 3.8-1.9 4-3.6.1-2.2-1.5-3-5.7-2.7m12.7 11c-2.4 0-3.7 2.4-3.4 6h6.4c.2-3.7-1-5.9-3-6zm.3 39.9c-.2 0-.4.4-.8.9.7.6 1.4 1.2 2.2 1.9 1.1-2.2.5-2.9-1.4-2.8m8.7-24.5c3.2 0 5-1.8 5-5 0-2.3-1.6-3.4-4.8-3.5-3.3-.1-4.3.8-4.3 4.2 0 3.6.7 4.4 4.1 4.3m5 35.6c0-4-1.2-5.5-3.9-5.5-2.8 0-4 1-4 3.6 0 3.3 1.9 5.1 5.5 5.1 2.4 0 2.5-1.6 2.4-3.2m4.2-12.7c-1.8.1-2.1 1.5-2 2.9.2 2.8 2.1 2.2 4.2 1.9.1-3.7-.4-4.9-2.2-4.8m3.8-34.1c-.2-1.2-1.1-2.4-2.2-4.4-1.4 1.9-2.6 2.8-2.9 4-.4 1.7 1.2 2.4 2.6 2.2.9-.2 2.5-1.3 2.5-1.8m10.6 6.9c-1.8-1.1-2.6-2-3.6-2.2-1.3-.3-2.9-.2-3.1 1.6-.2 1.6.9 2.7 2.4 2.6 1.2 0 2.3-.9 4.3-2m-57.5-12.9c-2.5 0-5.3-.9-6.8 2-.6 1.1-.5 3.4.2 4.2 1.9 2.1 4.5 1.9 7.4.8-.4-2.2 1.9-4.7-.8-7m22.1 71.4c.6 1.7 2.2 2.5 4 2.2 1.6-.3 2-1.6 2.1-3.1.4-4.2-.6-5-4.9-4.3-.4.1-.8.2-1.9.6.3 1.7.3 3.2.7 4.6m-17.4-55.4c1 .3 3.1-.2 3.5-1 .7-1.3 1.1-3.5.4-4.6-1.4-2.1-3.7-1.3-5.8-.1-.5 2.6-.7 4.9 1.9 5.7m30.5 61.1c-2.3 0-3.5 1-3.5 3.1 0 2.4 1 3.5 3.1 3.5 2.1 0 3.3-1.3 3.4-3.5 0-2-1-3.1-3-3.1m-58.5-19.9c-1.6.3-2.4 1.5-2.1 3 .3 1.2 1.1 2.7 2.1 3 .9.3 2.6-.5 3.3-1.4.8-1.1.8-2.7 1.2-4.6-2.1 0-3.3-.2-4.5 0m16.7-33.8c-.1 2.2.9 3.4 2.7 3.2 1.8-.2 3.1-1 3-3.1-.1-2-1-3.2-2.8-3.3-1.7 0-2.8 1.2-2.9 3.2m57.4 56.5c-.1 1.8.6 3 2.3 3.2 1.7.3 3.1-1.2 3.1-3.1 0-1.5-.5-2.6-2.5-2.6-1.5 0-2.7.5-2.9 2.5m53.6 10.3c-.1-1.6-1.1-2.6-2.6-2.5-1.4 0-2.6.7-2.7 2.5-.1 1.7.6 2.6 2.3 2.7 1.8 0 3.1-1.2 3-2.7m-60.7-3.1c-1.5 0-2.1 1-2 2.4.1 1.8 1.1 2.9 2.8 2.8.9-.1 1.6-1.2 2.1-1.7-.2-2.5-1-3.5-2.9-3.5m-54.5-73.6c.4-1.2-.1-2.5-1.7-2.5-1.6 0-2.8.8-2.7 2.4.1.9 1.1 1.8 2.2 3.4 1-1.6 1.9-2.4 2.2-3.3m83.8 64.1c-.6-.1-1.8 1-2 1.8-.4 1.3.3 2.5 1.8 2.4 1-.1 1.9-.9 3.7-1.8-1.7-1.3-2.6-2.3-3.5-2.4m-9.7 10.9c-.9.2-1.6 1.3-2.4 2 .7.6 1.4 1.7 2.2 1.8.8 0 1.6-1 2.9-1.9-1.2-.9-2.1-2-2.7-1.9m28.4 8.6c-1.3-.1-2.5.6-2.1 2.1.2.7 1.4 1.7 2.1 1.7.8 0 1.6-1 3.3-2.2-1.7-.9-2.5-1.6-3.3-1.6m1.7-17.2c.3-1.4-.5-2.4-1.9-2.4-.5 0-1.5.9-1.4 1.2.1 1 .6 2 1.3 3.7 1.1-1.3 1.9-1.8 2-2.5m-106.2-87c-.4-.1-1.8 1.1-1.8 1.4.3.9.9 1.8 1.7 2.2.4.2 1.4-.7 2.5-1.4-1-.9-1.6-1.8-2.4-2.2m85.9 104.3c-1.4-.2-2.4.8-2 2.1.2.7 1.4 1.6 2.1 1.5.7-.1 1.3-1.1 2.3-2.1-1.2-.7-1.8-1.4-2.4-1.5m9-8.6c-.6 0-1.1 1.1-1.7 1.6.6.5 1.2 1.3 1.9 1.5.4.1 1-.8 1.8-1.5-.7-.7-1.4-1.7-2-1.6m-64.9-8.6c-.1-.6-.8-1-1.3-1.5-.5.6-1.1 1.2-1.3 2-.1.3.9.9 1.7 1.6.4-1 1-1.6.9-2.1m36.4 17.9c-.3 0-1 1.1-.9 1.2.3.5.9 1 1.5 1.1.3.1.8-.7 1.5-1.4-.9-.4-1.5-.9-2.1-.9m.2 205.8c-2-1-3.9-2.1-5.8-3.3-1.9-1.2-3.4-1.1-4.3.5-1.2 1.9-.8 3.2 1.3 4.5 1.5 1 3 2 4.4 3.1.9.7 1.6 1.8 2.6 2.5 2.5 1.6 4.3.9 5.3-1.8.4-1.1.8-2.2 1.1-3.2 2.7-.7 4.9 0 6.7 1.4 3.1 2.3 2.7 5.8-.6 7.6-.7.4-1.7.5-2 1-.7 1.1-1.5 2.4-1.3 3.5.1.9 1.5 2.2 2.4 2.2 1.1.1 2.4-.8 3.4-1.6.5-.4.6-1.3.9-2 1.1-2.5 2.7-3.4 5.3-3 2.5.4 3.6 1.4 4 4.2.2 1.5.4 2.9.6 4.7 1.5.1 2.8.2 4.1.2 4.6 0 4.7 0 5.5-4.6.4-2.5 1.4-4.2 4.1-4.7 2.7-.5 4.2-2 4.2-5 0-2.9 0-5.5-3.6-6.2-.4-.1-.8-.3-1.2-.6-2.1-1.4-2-3.9.2-5.1 2.3-1.3 4.2-.4 5.2 2.4 1.2 3.5 4.5 4.7 7.2 2.4 2-1.6 1.4-3.8 1-6.2-1.5-.3-2.9-.6-4.3-1-2.1-.6-2.9-2-2.5-4.1.5-2.8 2-4.4 5-5.1 3.2-.8 3.4-1.8 3.1-6.4-.2-2.6-1.6-3.3-3.8-3.4-3.1-.1-5-1.5-5.4-4.9-.4-3.1-1.5-3.8-4.5-4.1-3.3-.4-4 .1-5.4 3.8-.7 1.9-2 3.4-3.9 3.2-1.4-.1-2.9-1.3-4.1-2.2-.5-.4-.4-1.4-.5-2.1-.7-3.3-.7-3.3-4.2-3.4-1.8 0-3.5 0-5.5 0-.2-2-.3-3.3-.5-4.6-.5-3.1-1.4-3.8-4.5-3.9-3.7-.1-4.5.3-5 3.7-.4 2.8-1.4 4.6-4.3 4.9-.4.1-1.1.3-1.2.6-.6 1.4-1.7 3-1.5 4.4.2 2.2 2.4 2.5 4.2 2.8 1.8.3 2.9-.8 3.2-2.5.4-1.8.4-3.6 2.9-4 1.8-.2 3.5-1.1 5.1.3.7 6.2.7 6.3-4.7 7.4-1.7.3-2.2 1.2-2.3 2.8-.1 3.3-.2 6.4 3.7 7.9 2 .8 2.5 2.6 1.8 4.6-.7 1.9-2.4 2-4.1 2.1-2.1.1-2.8-1.4-3.9-2.6-.9-1-2-1.3-3.2-.4-1.1.9-1.3 2-.6 3.2.4.7.8 1.3 1.2 1.9 1.5 2.4 2.1 5 1.7 8.3-1.3-.1-2.2.2-2.7-.1m21.8-22.9c.1 2.2-1.1 3.3-3.3 3.3-2.1 0-3.5-1.6-3.3-3.9.1-1.8 1.2-2.6 2.8-2.5 2.6.1 3.8 1.1 3.8 3.1m9.7 29.8c-.2 1.6-1.8 2.8-3.6 2.6-1.6-.2-2.5-1.1-2.3-2.7.2-1.9 1.5-3.1 3.3-2.9 1.5 0 2.7 1.5 2.6 3m6.1-27c-1.4.2-2.1-1.1-1.9-2.4.2-1.5 1.1-2.7 2.7-2.3 1 .2 1.7 1.4 3.1 2.6-1.8 1-2.8 2-3.9 2.1m-7 7c0 .5-.8 1-1.2 1.6-.5-.4-1.3-.8-1.3-1.2-.1-.5.5-1.1 1-2.1.8.8 1.6 1.2 1.5 1.7m-178.2 62.5c-.3-1.9-.6-3.9-.8-5.8-.5-3.5-.5-3.7-4.2-3.9-3.1-.2-5-1.2-5.7-4.6-.7-3.4-2.3-4-6-4-3.1 0-3.3 2-3.5 4.2-.1.6-.1 1.2-.3 1.8-.7 1.9-2.4 2.4-4 2.1-1.3-.2-3.1-1-3.6-2-1.5-3.1 0-5.8 3.4-6.8.7-.2 1.5-.4 2.1-.7 1.5-.9 2.1-5 1.1-6.6-1-1.5-3.8-2.2-5.3-.9-1 .9-1.8 2.4-2 3.8-.4 2.5-1.3 3.9-4 3.8-3.5-.1-4.7-.8-5.5-4-.4-1.4-.8-2.8-1.3-4.6-5.5.3-9.8-.9-9.6-7.5 0-.3-.3-.5-.6-1.1-1.2-.3-2.6-.8-4.1-.9-2.1-.1-4.1.7-4.2 3.2-.2 4.1-2.7 5.4-6.2 5.6-.6 0-1.1.3-1.6.4-1 6.5.9 8.4 7.7 7.6.3-1.3.5-2.8.9-4.2.3-.9 1.1-2.4 1.7-2.4 1.9 0 3.9.2 5.6.9 1.2.5 1.1 4-.1 5.4-.9.9-2.2 1.8-3.4 2-2.1.4-2.8 1.4-2.7 3.4.2 2.4 1.4 3.9 3.5 4.1 1.9.2 3.2-.6 3.7-2.6.1-.4.2-.9.4-1.3 1-2.4 2.6-3.5 4.9-3.2 2.2.4 4 1.4 4.4 3.9.3 1.6.6 3.2 1 4.8 1.2.1 2.1.3 3 .3 5.1.2 5.1.2 6.1 5 .4 2.2 1.6 3.1 3.8 3.2 3.8.2 5-.5 6.2-4.4.1-.4.1-.9.3-1.3.8-1.7 3-2.3 6-1.9 2.1.3 2.3 1.7 2.3 3.3 0 1.6.1 3.2.2 5.3 3.9.2 7.3.3 10.8.5l-.4.1m66.3-54.3c.2-1 1-2.3 1.9-2.7 4.1-1.6 6.8.2 7.5 4.6.3 2 .6 3.9 3.3 4 3.3.1 5.1-1.1 5.7-3.9.3-1.6.7-3.2 1-4.9 1.7-.4 3.2-.6 4.6-1 2.5-.7 3.4-2.3 3.5-5.6 0-2.4-1-3.6-3.4-3.8-2.5-.3-4.1-1.5-4.3-4.3-.1-1.2-.9-2.8-1.8-3.4-3-1.8-7.7 0-9.1 3.1-2 4.6-2.4 4.8-7.6 3.2-.3-1.1-.7-2.2-1-3.4-.9-2.9-2-3.6-4.9-3.3-2.5.3-4.4 1.4-4.9 4-.6 3.2-2.9 3.9-5.6 4.2-1.4.1-2.9.4-4.4.5-.1 3.3-.8 6.2 1.2 8.6 1.9.3 3.7.7 5.5.8 2.1.1 2.9 1.2 3.1 3.2.2 1.9.5 3.8.9 6.1 3.1-.2 5.7-.4 8.9-.6-.1-2.4-.4-3.9-.1-5.4m-8.4-5.6c-1-1.9-.9-4.2.8-5.3 1.2-.8 3.5-.9 5-.5 2 .6 2.2 3.5.9 7.4-2.3-.1-5 1.5-6.7-1.6m26.2-3.6c.7 1.4 1.1 3.7-.7 4.4-1.6.6-4 .7-5.5-.1-2.4-1.4-1.6-3.8-.6-6 2.6-.5 5.3-1.3 6.8 1.7m-84 63.4c.1 1.6-.2 3.4.4 4.8.5 1.2 2 2.5 3.2 2.6 1.2.1 2.6-1.1 3.6-2.1.7-.7.6-2 1.1-2.9.5-.8 1.3-2 2.1-2.1 2.2-.2 4.6-.3 6.7.3 1 .3 1.5 2.4 2 3.7.6 1.8 1.9 2.8 3.6 2.9 1.9.1 3.1-1 3.7-2.8.5-1.4 1-2.8 1.5-4 1.3-.3 2.3-.6 3.3-.8 1-.2 2.1-.1 3.1-.4 2.3-.6 3.2-2.4 3-4.9-.2-2.3-1.6-3-3.6-3.3-3.8-.5-4.9.2-6 4.2-1.2 4.3-1.2 4.3-5.5 4.2-.9 0-1.7-.2-2.4-.3-.3-.5-.6-.7-.7-1-.3-1.2-.6-2.3-.9-3.5-.8-3.2-1.3-3.7-4.1-3.6-3.4 0-4.7.8-5.4 3.6-.4 1.6-.7 3.2-1.1 5.2-2.6.2-5.2.3-7.7.5 0-.2.1-.3.1-.3m123.9-35.1c.9-1.8 2-2.9 4.1-2.9 1.2 0 2.4-.4 3.5-.8 2-.7 2.3-2.3 1.9-4.1-.4-1.7-1.9-2.7-3.4-2.2-1.6.4-3.8 1.4-4.3 2.7-1.4 3.4-3.9 4.5-7.1 5.3-3.8.9-4.8 2.7-4.6 6.9 5.9 1 7.3.4 9.9-4.9m-38 11.8c-.8 2.8-2.7 3.8-5.3 4-.7.1-1.5.1-2.2.2-2 .4-2.7 1.8-1.9 3.7 1.1 2.5 5 3 6.2.4 1.7-3.8 4.3-5.2 8.2-4.9.3 0 .6-.1.9-.2 2.3-.7 3.8-2.4 3.5-4.1-.5-2.4-2.5-2.2-4.6-2.2-2.4-.3-4.1.8-4.8 3.1m-201.8-39.2c-.4-3.1-1.8-4-5.5-3.6-2.8.3-3.5 1.3-3.4 4.7.1 3.2.4 3.4 4.3 3.5 1.3 0 2.7 0 4.7 0 0-2 .1-3.3-.1-4.6m79.4 33.1c1.9.6 3.9.6 5.5-1 1.1-1.1 1.2-4.5.2-6-1.2-1.8-3.6-2-7.3-.6-.8 5-.5 7 1.6 7.6m-96.7-38.2c6.6 1.3 7.6.5 7.4-5.9 0-.7-.2-1.4-.3-2.1-6.7-1.2-9 1.4-7.1 8m99.1 10.6c-3.4-.1-4.4.9-4.5 4.6-.1 2.9 1.1 4.2 4 4.2 3 0 4.1-1.2 4.2-4.6 0-3.5-.5-4.2-3.7-4.2m105.5 9.3c-3.5-.6-4.1-.1-4.8 3.5-.6 3.1.3 4.7 2.9 5 2.6.4 4.8-1.1 5.1-3.7.2-1.3 0-2.6 0-4.1-1.5-.3-2.3-.5-3.2-.7m-110.9 4.9c0-3.3-1.4-4.6-4.7-4.5-2.8.1-3.5.9-3.4 4.5.1 3.6.5 4 4.3 4 3.2-.1 3.8-.7 3.8-4m91.3-4.5c-3.1.1-4.6 2-4.4 5.5.1 2.5 1 3.1 4.5 2.9 1.1 0 2.3-.4 3.5-.6 0-2.6 0-4.9 0-7.6-1.6 0-2.6-.2-3.6-.2m-98-11.2c1.5.9 5.6.2 5.9-1 .5-1.8.9-4.2 0-5.5-1.7-2.6-4.5-1.5-7.4-.3.4 2.5-1.3 5.2 1.5 6.8m274.4-21.6c.1-3.1-1.6-5.1-4.4-5.1-2.5-.1-4.2 1.6-4.3 4.2-.1 2.8 1.4 3.9 4.8 3.9 3.1 0 3.9-.6 3.9-3m-201 46.9c-.2-2.9-1.9-4.2-4.8-4-2.6.2-3.3 1.3-3.4 4.3 0 2 .8 3.2 2.7 3.6 1.6.3 3.2.3 5.3.5.2-2.1.3-3.3.2-4.4m-95.2 2.3c.8-7-.3-8-7.5-6.6-.7 6.1 2 8.4 7.5 6.6m283.2-45.2c-2.9 0-4.8 1.7-4.8 4.3-.1 2.6 1.1 3.8 3.8 3.9 3.3 0 4.3-1 4.4-4.3 0-2.7-1.1-4-3.4-3.9m-174.4 38.8c-1.6.1-2.6 1.2-2.6 2.6 0 1.4.1 3.7.8 4 1.6.7 3.8.8 5.6.4.8-.2 1.4-2 1.7-3.2.2-.9-.1-2-.3-3.9-2 .1-3.6.1-5.2.1m5.6-15.8c.1-3-1.1-4.1-4.1-4-2.6.1-3.9 1.2-4 3.3-.1 2.9 1.6 4.7 4.2 4.6 2.5 0 3.8-1.3 3.9-3.9m-71.1 6.7c-3.1-.1-4.4 1-4.4 3.7 0 2.4 1.3 3.6 4.1 3.6 3.1 0 4-.8 4.1-3.4 0-2.9-.9-3.8-3.8-3.9m-86.1-3.4c2.8-.1 4.2-2.5 3.8-7.2-2.4 0-4.9 0-7.8 0-.2 5.4.9 7.3 4 7.2m315.8-34.9c-2.8 0-4.6 1.8-4.6 4.4 0 2.3 1.1 3.2 3.9 3.1 3.2-.1 4.3-1.1 4.2-3.9 0-2.6-.9-3.5-3.5-3.6m-181 74.3c2.3-.1 3-1.4 3-3.6 0-2.3-1.4-3.2-3.3-3.7-1.8-.5-3.9.7-4.3 2.4-.3 1.3-.2 2.6-.3 4.6 1.8.1 3.4.3 4.9.3m-157-46.3c-.3 2.5-1.1 5 1.2 6.8 1.6 1.2 3.3.8 4.6-.2 2.1-1.7 1.4-4 .9-6.6-2.2 0-4.3 0-6.7 0m389.5-34.9c0-2.2-.9-3-3-3-3.2 0-5.2 1.7-5.1 4.5.1 2.2 1.2 3.1 3.6 3.1 2.8-.1 4.5-1.8 4.5-4.6m-227.6 67.9c.6 2.5 1.9 3.4 4.6 3.1 1.9-.2 2.9-1.5 2.8-3.8 0-2.3-1.1-3.5-3.6-3.7-1.3-.1-2.6.1-4.4.2.3 1.8.3 3 .6 4.2m-25 5.6c-2.2-.1-3.2 1-3.3 3.8-.1 3.4.4 4.2 3.1 4.3 2.6.1 3.8-1 3.9-3.8 0-2.5-1.4-4.2-3.7-4.3m200.2-48c-2.1 0-3.6 1.3-3.7 3.2-.1 2.4 1.5 4.3 3.6 4.3 2.5.1 4.1-1.4 4.2-3.7.1-2.2-1.7-3.8-4.1-3.8m-264.2 25.9c.4-1.4.4-3.4-.4-4.6-.6-.8-2.9-1.3-3.9-.9-3 1.2-2.5 4-2.2 6.5 3.1 1 6 .7 6.5-1m226 12.3c-2.1.5-2.7 2.5-2.6 4.2.1 1 1.2 2.5 2.2 2.9 1.8.6 3.7-.1 4.5-1.9.6-1.4.7-3.1 1.2-5.2-2.4-.1-3.9-.3-5.3 0m-120.4 13.2c-.1-2.5-1-3.3-3.3-3.3-2.4 0-3.8 1.3-3.9 3.5-.2 3.7 2 4.8 6.9 3.3.1-1.2.3-2.3.3-3.5m-37.5-18.7c0-2.3-1.3-3.5-3.8-3.6-2.5-.1-3.5.9-3.6 3.5-.1 2.7.7 3.7 3.3 3.7 2.8.1 4.1-1.1 4.1-3.6m57.5 19.2c0-2.1-1.6-3.5-3.9-3.5-2.3 0-4.1 1.9-4.2 4.5-.1 1.9.9 2.7 3.3 2.6 3.3-.1 4.8-1.3 4.8-3.6m-182.4-67.1c-.2-2.4-1.4-3.5-3.8-3.4-3.1.2-3.8 1.9-3 7.1 5.5.3 7-.6 6.8-3.7m101.7 44c-2.6-.2-3.7.9-3.9 3.8-.2 2.5.7 3.7 2.7 3.8 2.7.1 4.4-1.3 4.5-3.8.1-2.6-.8-3.6-3.3-3.8m162.7-66.5c-2.5 0-3.6 1-3.6 3.5 0 2.6 1.2 3.8 4 3.7 2.3 0 3-.9 3-3.5-.1-2.6-1-3.6-3.4-3.7m-197 51c.1-2.8-.5-3.6-2.8-3.7-2.8-.1-4.3 1-4.5 3.3-.2 2.6 1 3.9 3.8 3.9 2.5.2 3.4-.6 3.5-3.5m110.6 15.5c-2.8 0-3.8.9-3.7 3.3.1 2.5 1.2 3.8 3.5 3.9 2.6.1 3.8-1.1 3.8-3.9-.1-2.7-.7-3.3-3.6-3.3m184.9-42.9c.4-1.3.4-3.2-.4-4.1-1.2-1.5-3.3-1.4-4.9-.4-2.6 1.5-1.3 3.9-1.2 6.2 4.5.7 5.9.4 6.5-1.7m-67.2-7.4c.7-.8.2-3.2-.4-4.5-.6-1.5-2.4-2-3.9-1.3-3.1 1.3-2.5 4-2.5 6.6 2.6 1 5.1 1.1 6.8-.8m-168.8 63.7c.1 2.3 1.2 3.3 3.4 3.3 2.6 0 3.6-1.2 3.6-4 0-2.5-.8-3.3-3.2-3.2-2.6 0-3.9 1.4-3.8 3.9m-60.1-45.2c1.3-1.6.6-3.5-.6-4.9-1-1.2-2.5-1.5-4-.8-2.1 1-2.3 2.1-1.4 6.4 2 .4 4.3 1.3 6-.7m-85.6 9.6c1.8-5.8.6-6.9-6.3-5.5-.7 5.8.5 6.8 6.3 5.5m120.4 10.3c2.1-.1 3.4-1.8 3.2-4-.2-2.2-1.7-3.3-4.1-3.2-1.9.1-3.1 1.7-3 3.7.2 2.3 1.7 3.7 3.9 3.5m-8.9-9.4c1.6-.2 3.4-.5 3.1-2.9-.2-2.3-1.6-3.6-3.8-3.7-2.9-.1-3.8 1.3-3.4 6.4 1.5.1 2.8.4 4.1.2m257.1-17.5c-2-.1-3.5.9-3.6 2.4-.2 2.4 1.5 4.6 3.7 4.8 2.2.2 3.4-1.1 3.5-3.6 0-2.4-1.1-3.5-3.6-3.6m-196.8 32.8c0-2.3-1-3.1-3.4-3.1-2.4 0-3.6 1.2-3.6 3.6 0 2.3.9 3.2 3.3 3.1 2.5-.1 3.6-1.2 3.7-3.6m-38.3 19.4c.1-2.2-.9-3.3-3.1-3.4-2.6-.1-3.8 1.1-3.8 3.8 0 2.1 1 3 2.9 2.9 2.7 0 3.8-1 4-3.3m-78.1-21.8c-1.2-.6-2.9-.7-4.2-.3-.6.2-1.3 2.2-1 3 .5 1.2 1.6 2.4 2.8 3 .9.5 2.3.1 3.5.1 1-3.3.9-4.9-1.1-5.8m94.2 6.5c1.9-.1 3.1-1.6 3-3.8-.1-2.3-1.3-3.5-3.3-3.4-2 .2-3.4 1.9-3.4 4.1.1 1.8 1.8 3.3 3.7 3.1m9.1-10c2.2 0 3.4-1.5 3.3-3.8-.1-2-1.5-3.2-3.6-3.1-2.1.1-3.1 1.3-3.1 3.6.2 2.1 1.4 3.3 3.4 3.3m14-11.8c.1-2.1-1-3.3-3.2-3.4-2.2-.1-4 1.4-3.9 3.3 0 1.6 1.5 2.7 3.9 2.7 2.2.2 3.1-.6 3.2-2.6m-39.4 18.4c0-2-1.8-3.8-3.8-3.8-1.8 0-2.9 1.2-3 3.3-.1 2.2 1 3.3 3.3 3.3 2.2.1 3.5-1 3.5-2.8m261.1-57.6c-.1 1.9 1 3 3.1 3 2.3 0 3.7-1.2 3.8-3.4.1-2.2-.6-3.1-2.7-3.2-2.5-.1-4 1.3-4.2 3.6m-209.8 74.4c-.5 1.1-.5 2.8.1 3.8 1.2 2.2 3.3 1.5 5.5.8 0-1.7 0-3.5 0-5.7-2.4-.3-4.6-1.3-5.6 1.1m-147.9-35.6c-.5-2-2.2-3.1-4-2.6-2.4.7-3 2.5-2 6.5 5.4-.7 6.6-1.5 6-3.9m374-48.6c-.1-2.1-1.3-2.9-3.2-2.9-2.3 0-3.4 1.3-3.4 3.7 0 1.9 1 2.7 2.8 2.6 2.4 0 3.9-1.3 3.8-3.4m-293.1 112.7c-.4 1.7 1.1 3.8 2.9 4 2.2.2 3.1-1.2 3.4-6-3.9-.6-5.9 0-6.3 2m-71.2-54.5c0-2.1-1.1-3.3-3.3-3.4-1.7-.1-2.9.5-3 2.5-.1 2.2 1.3 3.5 3.6 3.6 2-.1 2.7-.8 2.7-2.7m-18.2-39c0-1.7-.4-2.9-2.5-2.9-2 0-3.6 1.3-3.8 3.1-.2 1.6 1.2 3.2 3 3.3 2-.1 3.2-1.4 3.3-3.5m212.3 62.7c.8 4.2 1.4 4.9 3.6 4.7 2.2-.1 2.9-1.2 3.3-5.5-2.4.3-4.6.5-6.9.8m-144.9 22c0-1.6-.6-2.6-2.4-2.6-2 0-4.3 1.9-3.8 3.6.4 1.2 1.6 2.1 2.1 2.7 2.8-.1 4-1.6 4.1-3.7m-68.9-63.1c.5-1.2.6-3.1 0-4.2-1.1-1.9-3.1-1.1-4.9-.8 0 2 0 3.8 0 6.1 2.1 0 4 .8 4.9-1.1m-39-5.3c-1.9-.5-3.4 1.1-3.5 3.1-.1 1.8 1.3 3 3.1 2.9 1.6-.1 3.1-1.6 3.1-4-.6-.5-1.5-1.7-2.7-2m88.7 12.7c.1-2-1-3.3-2.7-3.4-1.8-.1-3.3 1.1-3.4 2.9-.1 1.9 1.4 3.3 3.4 3.4 1.9-.1 2.6-1.3 2.7-2.9m293-31.4c-1.5 0-3.1 1.4-3.2 3.2-.1 1.9.8 2.8 2.7 2.8 2.1.1 3.3-.8 3.4-2.7.1-1.7-1.1-3.2-2.9-3.3m-232.3 41.3c-.1 1.5 1.3 2.2 2.9 2.1 1.6-.1 2.8-.9 2.5-2.4-.3-1.2-1.5-2.1-2.9-3.9-1.3 1.9-2.4 3-2.5 4.2m-140.6-31.4c-1.3-.5-2.8 1.1-2.9 2.7-.1 1.5.6 2.3 2.1 2.5 1.6.2 3.2-1 3.3-3.2-.6-.5-1.4-1.6-2.5-2m277.6-29.2c-1.4-.6-3 1-2.9 2.5 0 1.6.9 2.8 2.4 2.6 1.1-.1 2.1-1.2 3.7-2.2-1.4-1.2-2.2-2.4-3.2-2.9m82.1 49.8c-.4 1.3 1.4 2.9 2.9 2.7 1.6-.1 2.4-1 2.4-2.7 0-1.7-1.2-2.9-3.6-2.7-.4.6-1.4 1.5-1.7 2.7m-172.3 55.6c0 .9.9 2.3 1.7 2.6 1.8.8 3-.3 4.3-3.6-4.3-1-6-.8-6 1m42.2-74.6c-.8.1-1.9 1.2-2 2-.2 3.4 2.8 2.2 4.9 3.4-.2-4-1.1-5.7-2.9-5.4m-125.2 9c-1.6-.4-2.5.6-2.6 2.3 0 1.8 1.2 2.4 2.6 2.2 1-.1 1.8-.9 3.6-1.9-1.7-1.3-2.5-2.3-3.6-2.6m-66.3-29.6c-1.5-.4-2.7.9-2.6 2.3 0 .9 1.3 2.4 1.9 2.4 1.1 0 2.1-1.1 3.7-2.1-1.3-1.3-2.1-2.4-3-2.6m267 .1c-.7 0-1.9 1.4-2.1 2.3-.4 1.7.9 2.6 2.5 2.3.9-.2 1.7-1.1 3.4-2.3-1.9-1.1-2.9-2.3-3.8-2.3m-69.2 32.6c1-.9 2.9-1.7 2.9-2.6.1-2.3-2-2.6-4-2.7 0 1.6 0 3 0 4.4.4.4.7.7 1.1.9m-129 73.7c.1-.6-.9-1.9-1.6-2.1-1.6-.4-2.7.6-2.5 2.2.1.8.9 1.6 1.9 3.1 1.1-1.5 2-2.3 2.2-3.2m225.2-94.1c-.1.5 1.1 1.7 1.8 1.9 1.6.3 2.7-.7 2.6-2.2-.1-.9-1.1-1.8-2.3-3.5-1 1.8-1.9 2.7-2.1 3.8m-123.1 63.2c-.3.7-.7 1.3-.7 2-.2 1.4.2 2.8 1.8 3 .5.1 1.6-1.1 1.5-1.6-.1-1-.8-1.9-1.2-2.8-.5-.2-1-.4-1.4-.6m-188.4-17c-.1-.8-1.1-1.9-1.8-2-1.4-.2-2.2 1-1.8 2.3.2.8 1.1 1.4 2.1 2.7.7-1.4 1.6-2.3 1.5-3m190.9-36.8c-.1-.6-1.3-1.6-1.8-1.5-2.1.4-1.7 2-1.3 3.8 2.3.5 3.3-.5 3.1-2.3m-30.2 8.9c-.2 3.1-.2 3.1 3.5 3.3-.6-2.2-1.2-3.6-3.5-3.3m174-18.5c0-.5-1.2-1-1.8-1.6-.5.6-1.2 1.3-1.3 2-.1.6.7 1.3 1.5 2.6.8-1.5 1.6-2.3 1.6-3m-279.2 11.1c.6 0 1.3-.9 1.9-1.4-.6-.7-1.2-1.6-2-1.9-.4-.1-1.2.9-2.2 1.7 1 .8 1.6 1.6 2.3 1.6m201.8-13.6c-.6 0-1.2.9-1.8 1.3.6.6 1 1.5 1.7 1.7.5.1 1.2-.7 2.3-1.4-1-.7-1.6-1.6-2.2-1.6m-297.4 10.7c-.3 0-.9.8-.9 1.2 0 .4.7 1.2.9 1.1.6-.1 1.1-.6 2-1.2-.9-.6-1.5-1.1-2-1.1m29.1-9.4c-.5.3-.9.9-1.3 1.3.4.3.9.9 1.3.9.3 0 .8-.6 1.4-1.1-.6-.5-1.2-1.2-1.4-1.1" style="fill-rule:evenodd"/></svg>